<svg width="40" height="40" viewBox="0 0 40 40" fill="none" xmlns="http://www.w3.org/2000/svg">
<path d="M38.98 11.6173V11.62V28.38C38.98 31.8211 37.9581 34.4476 36.1929 36.2129C34.4276 37.9781 31.8011 39 28.36 39H11.62C8.17889 39 5.55267 37.9782 3.78755 36.2108C2.02228 34.4434 1 31.8118 1 28.36V11.62C1 8.17887 2.02186 5.55236 3.78711 3.78711C5.55236 2.02186 8.17887 1 11.62 1H28.38C31.8213 1 34.4474 2.02194 36.2099 3.78666C37.9723 5.55118 38.9895 8.17676 38.98 11.6173ZM10 31.5H30C31.3723 31.5 32.5 30.3723 32.5 29C32.5 27.6277 31.3723 26.5 30 26.5H10C8.62772 26.5 7.5 27.6277 7.5 29C7.5 30.3723 8.62772 31.5 10 31.5ZM10 22.5H30C31.3723 22.5 32.5 21.3723 32.5 20C32.5 18.6277 31.3723 17.5 30 17.5H10C8.62772 17.5 7.5 18.6277 7.5 20C7.5 21.3723 8.62772 22.5 10 22.5ZM10 13.5H30C31.3723 13.5 32.5 12.3723 32.5 11C32.5 9.62772 31.3723 8.5 30 8.5H10C8.62772 8.5 7.5 9.62772 7.5 11C7.5 12.3723 8.62772 13.5 10 13.5Z" fill="white" stroke="black" stroke-width="2"/>
</svg>
